<svg width="1080" height="1080" viewBox="0 0 1080 1080" fill="none" xmlns="http://www.w3.org/2000/svg">
<g clip-path="url(#clip0_6_42)">
<path d="M1188 -108H-108V1188H1188V-108Z" fill="#00CC99"/>
<path d="M1188 -108H-108V1188H1188V-108Z" fill="#00CC99"/>
<mask id="mask0_6_42" style="mask-type:luminance" maskUnits="userSpaceOnUse" x="34" y="207" width="1046" height="744">
<path d="M1080 207.36H34.56V950.4H1080V207.36Z" fill="white"/>
</mask>
<g mask="url(#mask0_6_42)">
<path d="M532.723 446.165C518.413 386.923 482.12 357.29 423.868 357.29C393.234 357.29 364.468 367.303 337.558 387.305C310.648 407.285 289.284 433.7 273.478 466.55C257.66 499.378 249.763 532.824 249.763 566.9C249.763 609.38 260.878 643.58 283.108 669.5C305.338 695.42 335.218 708.38 372.748 708.38C406.824 708.38 435.455 699.74 458.653 682.46C481.873 665.18 497.184 641.488 504.598 611.36H386.068L404.608 497.285H692.743C679.895 575.315 658.284 636.92 627.898 682.1C597.534 727.28 559.014 762.853 512.338 788.795C465.684 814.715 412.483 827.675 352.723 827.675C275.705 827.675 213.864 805.94 167.188 762.47C120.5 719 97.1675 660.984 97.1675 588.41C97.1675 524.69 112.22 465.425 142.348 410.615C172.498 355.805 214.719 312.358 269.023 280.25C323.349 248.154 384.335 232.1 451.993 232.1C570.005 232.1 645.819 284.199 679.423 388.385L532.723 446.165Z" fill="white"/>
<mask id="mask1_6_42" style="mask-type:luminance" maskUnits="userSpaceOnUse" x="573" y="230" width="507" height="600">
<path d="M573.12 230.4H1080V829.44H573.12V230.4Z" fill="white"/>
</mask>
<g mask="url(#mask1_6_42)">
<path d="M1200.76 475.82C1200.76 529.64 1185.2 585.44 1154.09 643.22C1122.98 701 1079.03 746.203 1022.24 778.805C965.453 811.385 904.455 827.675 839.273 827.675C760.759 827.675 697.05 804.59 648.158 758.42C599.288 712.228 574.853 651.354 574.853 575.81C574.853 513.598 591.255 456.189 624.083 403.595C656.933 351.013 701.629 309.275 758.183 278.405C814.725 247.535 873.124 232.1 933.368 232.1C981.27 232.1 1026.09 242.484 1067.83 263.24C1109.55 283.974 1142.13 312.729 1165.57 349.505C1189.02 386.293 1200.76 428.39 1200.76 475.82ZM861.503 686.915C895.095 686.915 926.089 677.668 954.473 659.15C982.879 640.61 1005.47 616.659 1022.24 587.285C1039.04 557.923 1047.44 528.909 1047.44 500.255C1047.44 464.705 1033.99 434.589 1007.08 409.895C980.168 385.179 947.948 372.815 910.418 372.815C881.258 372.815 852.345 380.724 823.703 396.53C795.083 412.348 771.998 433.588 754.448 460.25C736.92 486.924 728.168 516.545 728.168 549.125C728.168 589.153 740.633 622.115 765.563 648.035C790.515 673.955 822.499 686.915 861.503 686.915Z" fill="white"/>
</g>
</g>
</g>
<defs>
<clipPath id="clip0_6_42">
<rect width="1080" height="1080" fill="white"/>
</clipPath>
</defs>
</svg>
